<?xml version="1.0" encoding="UTF-8" standalone="no"?>
<!-- Created with Inkscape (http://www.inkscape.org/) -->

<svg
   xmlns:dc="http://purl.org/dc/elements/1.1/"
   xmlns:cc="http://creativecommons.org/ns#"
   xmlns:rdf="http://www.w3.org/1999/02/22-rdf-syntax-ns#"
   xmlns:svg="http://www.w3.org/2000/svg"
   xmlns="http://www.w3.org/2000/svg"
   xmlns:sodipodi="http://sodipodi.sourceforge.net/DTD/sodipodi-0.dtd"
   xmlns:inkscape="http://www.inkscape.org/namespaces/inkscape"
   width="297mm"
   height="210mm"
   id="svg2985"
   version="1.1"
   inkscape:version="0.48.4 r9939"
   sodipodi:docname="New document 2">
  <defs
     id="defs2987" />
  <sodipodi:namedview
     inkscape:document-units="mm"
     pagecolor="#ffffff"
     bordercolor="#666666"
     borderopacity="1.0"
     inkscape:pageopacity="0.0"
     inkscape:pageshadow="2"
     inkscape:zoom="0.61399264"
     inkscape:cx="474.13734"
     inkscape:cy="350.2207"
     inkscape:current-layer="layer1"
     id="namedview2989"
     showgrid="false"
     inkscape:window-width="1440"
     inkscape:window-height="838"
     inkscape:window-x="-8"
     inkscape:window-y="-8"
     inkscape:window-maximized="1" />
  <metadata
     id="metadata2991">
    <rdf:RDF>
      <cc:Work
         rdf:about="">
        <dc:format>image/svg+xml</dc:format>
        <dc:type
           rdf:resource="http://purl.org/dc/dcmitype/StillImage" />
        <dc:title></dc:title>
      </cc:Work>
    </rdf:RDF>
  </metadata>
  <g
     inkscape:label="Layer 1"
     inkscape:groupmode="layer"
     id="layer1">
    <g
       id="g3879"
       transform="matrix(1.0502486,0,0,1.0502486,-36.238558,-19.29335)">
      <path
         sodipodi:nodetypes="cssssssssssssssccsssscssssssscsssssscssscssssssssccscsssssssssssssssssssssssscssssscssscscsssssscssssssssssssssssssssssssssssssssssssssscsssssssssscssssssssccsssssssssssssscsssssscsscscssscsssssssccc"
         inkscape:connector-curvature="0"
         id="path3025"
         d="m 549.43115,638.44108 c 2.43607,-2.21316 12.74775,-4.30254 11.53286,-2.3368 -0.35389,0.57261 0.76605,0.81629 2.48875,0.54149 2.31297,-0.36894 2.70456,-0.20074 1.49716,0.64306 -2.91475,2.03702 10.42141,0.67743 16.60653,-1.693 5.35484,-2.05223 5.78342,-2.50918 6.11723,-6.52205 0.32572,-3.91558 -0.29531,-4.99658 -6.7059,-11.67255 -3.8857,-4.04653 -10.34818,-9.27748 -14.36108,-11.62431 -6.68864,-3.91167 -7.49679,-4.81713 -9.70514,-10.87376 -3.57667,-9.80934 -3.22293,-18.59955 1.16686,-28.99614 4.78929,-11.34272 6.45941,-16.42821 7.97466,-24.2828 1.03222,-5.35063 3.47964,-9.93103 12.92256,-24.18472 11.81727,-17.83771 22.34646,-32.27589 27.73071,-38.02582 2.76288,-2.95052 3.6038,-3.16704 12.2997,-3.16704 5.13374,0 11.73715,-0.6051 14.67423,-1.34467 4.10193,-1.03288 5.44564,-1.02825 5.79504,0.0199 0.70768,2.12303 8.57433,13.37103 9.65213,13.80095 0.52931,0.21115 0.96239,1.0525 0.96239,1.86968 0,0.81718 1.82259,4.01302 4.05021,7.10186 2.22762,3.08885 5.20753,7.26798 6.62201,9.28695 9.92249,14.16298 12.99222,18.39503 14.31292,19.73238 0.82659,0.83699 1.5132,2.1326 1.5258,2.87913 0.028,1.65776 6.92398,12.269 13.36809,20.57019 3.79821,4.8928 5.15041,7.97515 6.72803,15.33672 1.08594,5.06727 2.70409,10.36105 3.59589,11.76393 0.8918,1.40289 1.62146,4.06021 1.62146,5.90516 0,4.03286 1.56202,5.45822 6.90992,6.30534 2.21693,0.35118 9.66594,1.66655 16.55335,2.92307 6.88741,1.25651 18.59828,2.6472 26.02415,3.09042 11.85392,0.7075 13.58892,0.57825 14.21723,-1.05911 0.39362,-1.02569 1.79414,-1.86492 3.1123,-1.86492 1.31815,0 3.92563,-0.79068 5.79441,-1.75705 5.83501,-3.0174 4.66033,-5.25056 -8.1374,-15.46987 -18.93816,-15.12258 -31.07601,-31.20967 -31.07601,-41.18709 0,-6.19291 -2.96443,-19.55407 -5.04191,-22.7247 -2.42782,-3.70533 -5.58189,-31.58003 -6.15776,-54.42033 l -0.47062,-18.6662 3.81975,0.34561 c 4.51209,0.40825 10.51902,3.3422 14.6108,7.13631 2.14561,1.98952 3.17388,2.34252 3.82741,1.31394 0.64245,-1.01116 0.89855,-0.89838 0.91123,0.40126 0.009,0.99425 1.31324,2.93423 2.89677,4.31109 2.94683,2.56223 4.03327,5.65123 1.43956,4.09299 -1.13875,-0.68414 -1.14658,-0.50264 -0.0375,0.86859 0.8381,1.0362 1.13799,3.36073 0.74556,5.77903 -0.72315,4.45624 3.26344,15.51266 6.43643,17.85085 0.97944,0.72176 4.63117,5.12162 8.11492,9.77746 6.96911,9.31383 26.73072,29.14367 33.97378,34.09108 6.79695,4.6427 23.4724,17.34172 29.00344,22.08728 7.40613,6.35435 12.32538,9.95184 12.73998,9.31684 0.20676,-0.31671 0.74573,-0.005 1.19767,0.69276 1.69668,2.61933 15.92743,6.02533 28.09611,6.72456 l 12.30286,0.70694 2.09281,-3.07154 c 3.0491,-4.47509 7.55444,-8.75818 11.99385,-11.40222 2.14124,-1.2753 4.09101,-3.34601 4.33282,-4.60159 0.2418,-1.25556 1.4136,-3.52105 2.60402,-5.03441 1.29171,-1.64215 2.18487,-4.66243 2.21521,-7.4908 0.0792,-7.38482 2.76516,-16.19381 5.07638,-16.64869 2.74732,-0.54071 10.99594,-8.7213 10.99594,-10.90524 0,-0.97826 1.23809,-2.75254 2.75132,-3.94285 1.51322,-1.19029 3.93705,-4.92052 5.3863,-8.28938 2.37419,-5.51896 3.29248,-6.42439 9.27787,-9.14803 8.43074,-3.83636 36.71228,-30.07383 36.71228,-34.05884 0,-1.39494 1.28943,-3.74762 2.86541,-5.22817 7.47551,-7.02288 27.30641,-40.8917 32.28271,-55.13498 3.783,-10.82766 4.2231,-16.60442 1.3108,-17.20461 -2.4733,-0.50971 -4.2048,1.66112 -10.3434,12.9678 -2.4218,4.46067 -5.70756,9.82141 -7.30181,11.91275 -7.78557,10.21311 -23.05894,22.10977 -28.38533,22.10977 -1.52478,0 -5.56608,1.48476 -8.98064,3.29947 -3.41456,1.81469 -10.09513,4.94776 -14.8457,6.96237 -4.75057,2.01461 -10.07085,4.45087 -11.82284,5.41392 -3.15273,1.73302 -23.87841,3.78897 -23.87841,2.36871 0,-0.39762 2.0052,-3.37228 4.45601,-6.61035 2.45081,-3.23808 5.09315,-8.04235 5.87186,-10.67616 0.77873,-2.63381 2.07869,-5.56611 2.88883,-6.51623 2.64268,-3.09928 10.96896,-20.27101 10.9314,-22.54437 -0.0548,-3.31415 -2.75445,-6.24696 -5.75036,-6.24696 -1.45966,0 -6.32585,1.99814 -10.81375,4.44031 -8.07771,4.39563 -30.54398,10.53118 -38.56154,10.53118 -6.12857,0 -26.025,-17.45538 -29.57156,-25.94348 -4.02745,-9.63905 -4.72774,-57.46835 -1.0001,-68.30555 l 1.45063,-4.21734 11.33492,-0.0523 c 11.57802,-0.0534 17.76816,-1.6582 20.8827,-5.41391 0.81742,-0.9857 4.3869,-3.25978 7.93219,-5.05354 7.47534,-3.78218 25.70919,-20.92948 25.70273,-24.17112 -0.002,-1.18915 -1.07474,-3.9179 -2.38303,-6.06389 l -2.37873,-3.90182 -9.3003,0.77562 c -11.53243,0.96177 -39.96319,5.79913 -51.76976,8.80839 -9.45495,2.4099 -17.08293,2.93087 -17.08293,1.16675 0,-0.59603 0.51824,-1.40398 1.15165,-1.79545 2.05225,-1.26836 1.29126,-8.4978 -1.15165,-10.94071 -3.10074,-3.10074 -5.60468,-2.91246 -15.12052,1.13689 l -8.08435,3.44019 -4.55991,-3.66443 c -2.50795,-2.01545 -6.10271,-6.17182 -7.98835,-9.23637 -1.88564,-3.06456 -6.19067,-8.27565 -9.56674,-11.58021 -4.18092,-4.09235 -6.57661,-7.56217 -7.51283,-10.88123 -0.8154,-2.89068 -3.76129,-7.57549 -7.24181,-11.51653 -3.22699,-3.65397 -6.70724,-8.46308 -7.73389,-10.6869 -3.03383,-6.57156 -26.14814,-28.92624 -34.52661,-33.39192 -7.25306,-3.86584 -12.36552,-8.38797 -24.42408,-21.60385 -4.91186,-5.38328 -8.68263,-8.1382 -16.12315,-11.77955 -9.04411,-4.42615 -10.85999,-4.87045 -26.41083,-6.46216 -9.18443,-0.94007 -21.10405,-1.74771 -26.48803,-1.79476 -8.90431,-0.0778 -10.85216,0.34374 -21.55148,4.66431 -6.46932,2.61242 -15.02035,5.50026 -19.00228,6.41742 -10.93606,2.51892 -47.28786,5.22989 -69.98566,5.21926 -22.6342,-0.0106 -33.63321,-1.01908 -57.02616,-5.2286 -45.95546,-8.26962 -50.66295,-9.31734 -70.62005,-15.71755 -9.448,-3.02995 -12.34561,-3.43751 -24.18473,-3.40165 -14.37021,0.0435 -27.84631,2.00167 -44.5453,6.47261 -5.70068,1.52629 -14.76995,3.35289 -20.15393,4.05912 -5.38399,0.70623 -19.11745,2.78673 -30.51882,4.62334 -17.8072,2.86849 -24.99565,3.42193 -50.98779,3.92553 -26.97141,0.52257 -30.8235,0.83638 -35.46401,2.8891 -7.8357,3.4661 -11.47202,6.43712 -18.20166,14.87149 -3.36847,4.22174 -13.48327,14.41174 -22.47734,22.64444 -13.36343,12.23218 -18.11745,17.49492 -26.00557,28.78839 -10.2981,14.74385 -10.14765,14.56874 -24.29602,28.27883 -5.110026,4.95174 -12.454806,13.45103 -16.321716,18.88732 -8.68275,12.20661 -9.12574,15.0208 -7.37483,46.85111 1.32845,24.15046 3.00403,31.61075 13.2321,58.91411 2.31446,6.17832 4.2081,12.15583 4.2081,13.28335 0,1.12751 1.80654,7.46384 4.01453,14.08072 2.559766,7.67109 4.020416,14.26159 4.030786,18.18701 0.0112,4.24976 0.71582,7.13875 2.27515,9.32863 1.66596,2.33963 2.08294,4.25664 1.58855,7.3032 -0.51377,3.166 0.0346,5.39218 2.34772,9.53079 1.65993,2.96995 3.01806,6.38406 3.01806,7.58692 0,1.20284 -1.86063,5.88173 -4.13475,10.39752 -5.62821,11.17614 -6.87132,19.9296 -5.06157,35.64156 0.8694,7.54796 1.10317,16.29464 0.60162,22.51004 l -0.82027,10.16534 -6.233216,5.94709 c -3.42828,3.27089 -6.23323,6.46669 -6.23323,7.10177 0,0.63508 -1.31807,2.11484 -2.92904,3.28836 -2.34724,1.70984 -3.13835,3.61438 -3.98274,9.58816 -0.57953,4.09997 -0.7867,8.51826 -0.46038,9.81843 0.32632,1.30016 0.0686,6.54839 -0.57266,11.66275 -0.68314,5.4481 -0.75656,10.9112 -0.17731,13.19243 0.54377,2.14148 1.30534,5.30833 1.69238,7.03742 0.38704,1.72911 2.12163,4.66925 3.85465,6.53368 1.73301,1.86441 4.0901,4.73586 5.23796,6.38101 1.20584,1.72823 2.64672,2.64526 3.4126,2.17191 0.72907,-0.45058 5.749706,-1.22614 11.156986,-1.72346 5.40728,-0.4973 12.68176,-1.42385 16.16551,-2.05899 3.48375,-0.63513 7.88275,-1.41597 9.77555,-1.73521 7.61015,-1.28351 15.57115,-11.02888 16.44584,-20.132 0.50407,-5.24594 0.15347,-6.39635 -3.61839,-11.87292 -2.2971,-3.33529 -4.17654,-7.16244 -4.17654,-8.50477 0,-1.34232 -0.79573,-4.34504 -1.76829,-6.67269 -2.40077,-5.74586 -1.53655,-9.64167 6.40463,-28.87132 3.66206,-8.86773 6.94634,-17.41876 7.29839,-19.00228 16.00234,-9.11751 13.05314,-0.46523 26.05024,-0.62731 0.63628,1.67353 2.33384,3.00299 4.41936,3.46104 3.06343,0.67285 3.51276,1.38687 4.71351,7.49016 0.73,3.71054 3.1266,10.13705 5.32577,14.28116 8.3859,15.80232 14.70839,37.80637 14.17576,49.33561 -0.34397,7.44581 -0.16195,8.18206 2.49396,10.08801 5.0983,3.65866 23.40095,10.22722 30.64963,10.99973 7.77193,0.82826 24.97571,-1.83206 30.57618,-4.72818 4.19681,-2.17026 4.56025,-7.6897 0.66144,-10.04522 -1.42517,-0.86103 -5.60765,-3.33465 -9.29441,-5.4969 -11.77709,-6.90719 -13.40634,-12.24049 -13.45102,-44.03166 -0.0375,-26.66693 1.69384,-37.63918 7.88081,-49.94445 2.51738,-5.0068 6.5119,-11.41158 8.8767,-14.23282 2.36482,-2.82124 6.39867,-7.97987 8.96412,-11.46362 2.56544,-3.48376 6.50822,-8.28579 8.76174,-10.67119 l 4.0973,-4.3371 8.6374,4.16141 c 9.06792,4.36884 18.95967,8.50145 21.88142,9.14173 0.95011,0.2082 3.95702,1.18182 6.68203,2.1636 4.95298,1.78447 32.55114,8.98048 53.2274,13.87862 6.03029,1.42856 12.76746,3.17985 14.97149,3.89178 7.10126,2.29376 19.68459,3.82216 39.13261,4.75312 10.45117,0.5003 19.52044,0.73704 20.15394,0.52612 0.6335,-0.21094 4.26128,-0.69209 8.06174,-1.06922 3.80045,-0.37714 8.46465,-0.92918 10.36488,-1.22675 1.90023,-0.29758 4.59532,-0.53577 5.9891,-0.52933 1.39378,0.007 2.85477,-0.50705 3.24663,-1.1411 0.39186,-0.63404 1.14578,-0.88501 1.67537,-0.55771 0.52957,0.3273 6.06489,-1.27724 12.30069,-3.56565 11.81046,-4.33423 22.27852,-6.23504 22.27852,-4.04541 0,0.67672 -0.98476,6.03874 -2.18834,11.91561 -2.78331,13.59039 -4.72032,28.61457 -4.72605,36.65717 -0.002,3.51765 -1.76682,12.85219 -4.01564,21.24582 -4.71373,17.59371 -4.85913,20.72312 -1.54288,33.20608 3.57575,13.45979 3.32703,26.07836 -0.66948,33.96512 -1.64998,3.25605 -3.77487,8.89524 -4.722,12.53153 -2.47368,9.4971 -1.02825,13.17275 6.70895,17.06056 3.28514,1.65072 6.75037,3.42653 7.70048,3.94622 6.9067,3.77784 9.90556,4.33134 23.6089,4.35748 8.61168,0.0165 10.77495,-0.35276 12.78918,-2.1827 l 0,0 z"
         style="color:#000000;fill:#ffffff;fill-opacity:1;fill-rule:nonzero;stroke:#000000;stroke-width:5.06066895;stroke-miterlimit:4;stroke-opacity:1;stroke-dasharray:none;marker:none;visibility:visible;display:inline;overflow:visible;enable-background:accumulate" />
      <path
         sodipodi:nodetypes="caaaaaacacaaaac"
         inkscape:connector-curvature="0"
         id="path3817"
         d="m 242.99889,198.21072 c 0,4.60661 -5.18909,15.99891 -4.60661,24.18472 1.00816,14.1679 10.90452,26.40655 13.81984,40.30787 2.84636,13.5725 2.34732,27.63609 3.45496,41.45953 0.79955,9.9785 2.45806,19.9337 2.30331,29.94299 -0.22085,14.28478 -1.37424,28.69517 -4.60662,42.61118 -3.04985,13.13021 -6.77587,26.51169 -13.81984,38.00457 -8.23204,13.43131 -32.2463,34.5496 -32.2463,34.5496 0,0 37.61265,-15.7168 57.58268,-18.42645 9.51758,-1.2914 28.79134,1.15165 28.79134,1.15165 0,0 -13.483,-12.57336 -17.27481,-20.72976 -10.19018,-21.91966 -10.85747,-47.2979 -12.66819,-71.40252 -1.12185,-14.93434 2.02176,-29.96337 1.15166,-44.91449 -0.78853,-13.54944 -2.92767,-27.03395 -5.75827,-40.30787 -4.07999,-19.13287 -16.12315,-56.43102 -16.12315,-56.43102 z"
         style="fill:#000000;stroke:none" />
      <path
         sodipodi:nodetypes="caaaacaaaac"
         inkscape:connector-curvature="0"
         id="path3819"
         d="m 278.70015,320.28599 c 0,0 26.64805,40.80054 44.91449,56.43102 17.11218,14.64279 37.8484,24.97083 58.73433,33.39795 17.26869,6.96762 35.73497,10.91085 54.12771,13.81985 17.85732,2.82432 36.24478,6.11224 54.12772,3.45496 9.73287,-1.44624 27.63968,-10.36489 27.63968,-10.36489 0,0 -15.12639,16.46827 -25.33638,19.57811 -27.60322,8.4076 -57.99439,-0.54077 -86.37401,-5.75826 -19.34772,-3.55701 -38.0404,-10.29113 -56.43102,-17.27481 -13.81104,-5.24463 -30.04639,-7.79852 -40.30788,-18.42645 -18.76769,-19.43788 -31.09464,-74.85748 -31.09464,-74.85748 z"
         style="fill:#000000;stroke:none" />
      <path
         sodipodi:nodetypes="aaaaaaaaaacaaaaca"
         inkscape:connector-curvature="0"
         id="path3821"
         d="m 525.72983,426.81394 c 2.31926,-5.4796 -2.00933,-12.24995 0,-17.85063 1.42745,-3.97878 6.85633,-5.73742 8.06157,-9.78905 0.49558,-1.66597 -0.86453,-3.46848 -0.57582,-5.18245 0.74158,-4.40244 4.77436,-7.73767 5.75826,-12.09236 1.01523,-4.49335 -0.83049,-9.28871 0,-13.81984 1.07327,-5.85576 4.27009,-11.11492 6.3341,-16.69898 3.53636,-9.56742 7.19694,-19.09569 10.36488,-28.79133 2.11271,-6.46605 4.38216,-12.9163 5.75827,-19.57811 3.20758,-15.52804 4.79679,-31.39111 5.75827,-47.2178 0.33754,-5.55608 0,-16.69897 0,-16.69897 0,0 -2.8134,34.50499 -6.90993,51.24858 -5.38207,21.99792 -16.31859,42.2883 -23.03307,63.91677 -2.47077,7.95877 -3.59996,16.31253 -6.33409,24.18472 -4.3992,12.6663 -11.68064,24.20174 -16.12315,36.85291 -3.42466,9.75259 -8.06157,29.943 -8.06157,29.943 0,0 15.56324,-10.30121 19.00228,-18.42646 z"
         style="fill:#000000;stroke:none" />
      <path
         sodipodi:nodetypes="caaccaac"
         inkscape:connector-curvature="0"
         id="path3823"
         d="m 544.15628,390.53685 c 0,0 33.96473,-19.61883 51.82441,-27.63968 13.62819,-6.12047 27.95049,-10.56692 42.03536,-15.54732 15.27926,-5.40274 46.06614,-15.54733 46.06614,-15.54733 l 16.12315,-9.78905 c 0,0 -38.23969,23.02648 -58.73433,31.67047 -12.41773,5.2374 -25.92669,7.45406 -38.5804,12.09236 -19.94875,7.31234 -58.73433,24.76055 -58.73433,24.76055 z"
         style="fill:#000000;stroke:none" />
      <path
         sodipodi:nodetypes="caaaaacaaaac"
         inkscape:connector-curvature="0"
         id="path3825"
         d="m 532.63975,411.84244 c 0,0 53.68964,-18.45 81.19157,-25.33637 7.96075,-1.99334 16.00393,-3.95743 24.18473,-4.60662 12.82554,-1.01778 26.37681,-2.92301 38.58039,1.15166 3.78846,1.26493 9.01321,2.99194 9.78905,6.90992 1.81013,9.14109 -10.04133,15.70132 -14.97149,23.60889 -3.6923,5.92214 -10.94071,17.85063 -10.94071,17.85063 0,0 10.15989,-19.62546 7.48575,-29.36716 -0.71855,-2.61764 -3.31982,-4.56566 -5.75827,-5.75827 -5.56053,-2.71957 -12.2418,-2.04739 -18.42646,-2.30331 -9.21334,-0.38125 -18.48424,0.0522 -27.63968,1.15166 -28.18032,3.38422 -83.49488,16.69897 -83.49488,16.69897 z"
         style="fill:#000000;stroke:none" />
      <path
         sodipodi:nodetypes="cacaac"
         inkscape:connector-curvature="0"
         id="path3827"
         d="m 640.89518,417.60071 c 0,3.45496 -17.70357,36.12531 -29.36716,52.40024 -1.50424,2.09896 -5.18245,5.75826 -5.18245,5.75826 0,0 9.69771,-2.03646 13.24402,-5.18244 6.68099,-5.92679 9.27877,-15.34606 12.66819,-23.60889 3.87242,-9.44031 8.6374,-29.36717 8.6374,-29.36717 z"
         style="fill:#000000;stroke:none" />
      <path
         sodipodi:nodetypes="caacaac"
         inkscape:connector-curvature="0"
         id="path3829"
         d="m 810.76407,310.49693 c 0,0 8.50919,1.3315 12.66819,0.57583 4.31472,-0.78396 8.40843,-2.80335 12.09236,-5.18244 2.62482,-1.69512 6.90992,-6.33409 6.90992,-6.33409 0,0 -4.22743,11.58509 -8.6374,15.54732 -4.03079,3.62155 -9.74583,7.76776 -14.97149,6.33409 -4.36857,-1.19853 -8.06158,-10.94071 -8.06158,-10.94071 z"
         style="fill:#000000;stroke:none" />
      <path
         inkscape:connector-curvature="0"
         id="path3831"
         d="m 856.25439,426.81394 8.6374,-1.15165 4.03079,2.3033 1.15165,6.3341 -2.30331,1.72748 -10.36488,-5.18244 z"
         style="fill:#000000;stroke:none" />
      <path
         inkscape:connector-curvature="0"
         id="path3833"
         d="m 888.50069,524.70449 -9.21323,-0.57583 -3.45496,2.87914 c 0,0 0,6.33409 1.72748,8.6374 1.72748,2.3033 5.75826,7.48574 8.06157,7.48574 2.30331,0 10.94071,-4.60661 10.94071,-4.60661 0,0 1.72748,-1.72748 1.72748,-4.03079 0,-2.3033 -2.87913,-8.06157 -2.87913,-8.06157 z"
         style="fill:#000000;stroke:none" />
      <path
         inkscape:connector-curvature="0"
         id="path3835"
         d="m 855.67856,520.09787 2.30331,13.24402 10.36488,13.81984 10.94071,12.66819 -4.60662,0.57583 -13.81984,-15.54733 -4.60661,-9.78905 z"
         style="fill:#000000;stroke:none" />
      <path
         sodipodi:nodetypes="cacaac"
         inkscape:connector-curvature="0"
         id="path3837"
         d="m 106.52795,411.26662 c 0,0 12.354,10.40793 19.00228,14.97149 5.88928,4.04256 18.42646,10.94071 18.42646,10.94071 0,0 -14.15153,-4.21463 -20.72976,-7.48575 -4.09964,-2.03861 -8.50304,-4.03874 -11.51654,-7.48574 -2.65599,-3.03806 -5.18244,-10.94071 -5.18244,-10.94071 z"
         style="fill:#000000;stroke:none" />
      <path
         sodipodi:nodetypes="caacaaac"
         inkscape:connector-curvature="0"
         id="path3839"
         d="m 164.68645,410.11496 c 0,0 14.89921,-3.34975 21.88142,-6.33409 6.32684,-2.70422 12.2887,-6.31436 17.85063,-10.36488 8.34974,-6.08077 23.03307,-20.72977 23.03307,-20.72977 0,0 -13.72914,20.76088 -23.03307,28.79134 -4.03723,3.48464 -8.86213,6.09613 -13.81984,8.06158 -4.76116,1.88753 -9.85044,3.53313 -14.9715,3.45496 -3.77063,-0.0575 -10.94071,-2.87914 -10.94071,-2.87914 z"
         style="fill:#000000;stroke:none" />
      <path
         sodipodi:nodetypes="caaacaaaac"
         inkscape:connector-curvature="0"
         id="path3841"
         d="m 693.87124,202.81733 c 0,0 38.40689,54.62127 57.00685,82.34323 5.10194,7.60409 10.80511,14.87873 14.9715,23.03307 5.33583,10.44315 8.24626,21.96039 12.66818,32.82212 2.75591,6.76946 8.63741,20.15394 8.63741,20.15394 0,0 0.58691,-28.12655 -1.15166,-42.03535 -0.97609,-7.80886 -2.22073,-15.74202 -5.18244,-23.03307 -3.72913,-9.18025 -9.07899,-17.83011 -15.54732,-25.33638 -8.18187,-9.49477 -19.60943,-15.65325 -28.79134,-24.18473 -14.91554,-13.85896 -42.61118,-43.76283 -42.61118,-43.76283 z"
         style="fill:#000000;stroke:none" />
      <path
         inkscape:connector-curvature="0"
         id="path3843"
         d="m 848.34079,430.36922 4.07171,5.90398 c 0,0 2.64661,3.25737 4.27529,3.25737 1.62869,0 6.71833,0.61076 6.71833,0.61076 l -7.93984,-3.05379 z"
         style="fill:#000000;stroke:none" />
      <path
         inkscape:connector-curvature="0"
         id="path3845"
         d="m 852.61608,419.98636 8.34701,-3.05378 2.8502,0 -5.7004,-1.01793 z"
         style="fill:#000000;stroke:none" />
      <path
         inkscape:connector-curvature="0"
         id="path3847"
         d="m 847.52645,415.91465 8.55059,-3.86812 4.88605,0.40717 5.29322,3.05378 5.7004,6.51474 -8.95777,-6.71832 -5.29322,-2.44303 z"
         style="fill:#000000;stroke:none" />
      <path
         inkscape:connector-curvature="0"
         id="path3849"
         d="m 844.87983,410.21426 9.97569,-2.03586 6.31115,-0.61075 5.7004,3.46095 7.73625,9.16135 3.66454,4.27529 -13.02948,-12.82588 -4.88605,-2.03586 z"
         style="fill:#000000;stroke:none" />
      <path
         inkscape:connector-curvature="0"
         id="path3851"
         d="m 841.41888,429.96205 5.7004,8.95776 8.14342,6.10757 8.95776,0 10.17927,-0.40717 -9.16135,2.23944 -10.79003,0.20358 -8.55059,-5.90398 z"
         style="fill:#000000;stroke:none" />
      <path
         inkscape:connector-curvature="0"
         id="path3853"
         d="m 923.05667,498.1632 c -0.81434,-0.20359 -8.34701,-2.03586 -8.34701,-2.03586 0,0 -7.73625,0.20359 -8.75417,-0.61076 -1.01793,-0.81434 -4.88606,-2.23944 -6.10757,-3.05378 -1.22151,-0.81434 -12.01154,-6.10756 -12.82589,-6.51473 -0.81434,-0.40718 -12.41871,-6.31116 -12.41871,-6.31116 l 17.71194,7.1255 c 0,0 6.9219,3.46095 7.93983,4.07171 1.01793,0.61075 8.55059,2.85019 9.77211,2.85019 1.22151,0 9.97569,0.81435 9.97569,0.81435 l 5.90397,2.85019 z"
         style="fill:#000000;stroke:none" />
      <path
         inkscape:connector-curvature="0"
         id="path3855"
         d="m 908.39851,513.02494 -6.10756,-6.10757 -8.55059,-3.46095 c 0,0 -8.75418,-1.83227 -9.56852,-1.83227 -0.81435,0 9.36493,3.05378 9.36493,3.05378 l 7.73625,4.07171 4.88605,4.07171 2.44303,2.64661 z"
         style="fill:#000000;stroke:none" />
      <path
         inkscape:connector-curvature="0"
         id="path3857"
         d="m 883.76467,498.1632 11.40078,-0.61076 7.73625,2.03585 c 0,0 6.71832,1.83227 7.53267,2.64662 0.81434,0.81434 2.23944,2.44302 2.44302,3.25736 0.20359,0.81435 1.22152,5.90398 1.22152,5.90398 l -1.22152,1.4251 -1.62868,-0.40717 c 0,0 0.40717,-3.86812 0.40717,-4.88605 0,-1.01793 -2.44303,-3.86813 -2.44303,-3.86813 l -8.55059,-3.25736 -7.12549,-1.01793 z"
         style="fill:#000000;stroke:none" />
      <path
         inkscape:connector-curvature="0"
         id="path3859"
         d="m 861.98102,512.41418 c 0.81434,-0.20358 7.53266,-2.23944 7.53266,-2.23944 l 7.53266,-0.40717 c 0,0 7.73625,-0.61076 8.75418,0 1.01793,0.61076 9.16135,2.44303 10.17928,3.46095 1.01792,1.01793 5.90398,6.10757 6.71832,7.1255 0.81434,1.01792 2.23944,4.27529 2.23944,4.27529 0,0 -3.66454,-3.66454 -4.47888,-4.47888 -0.81435,-0.81434 -9.16135,-6.92191 -9.16135,-6.92191 0,0 -5.29322,-0.81434 -6.31115,-1.01792 -1.01793,-0.20359 -8.55059,-0.81435 -8.55059,-0.81435 l -8.55059,0.61076 z"
         style="fill:#000000;stroke:none" />
      <path
         inkscape:connector-curvature="0"
         id="path3861"
         d="m 862.99894,504.47435 -11.1972,3.86812 -3.25737,6.92191 -0.81434,9.56852 1.4251,4.68246 c 0,0 -2.64661,-5.08963 -2.64661,-6.9219 0,-1.83227 1.01793,-10.58645 1.01793,-10.58645 l 3.86812,-5.49681 4.47888,-1.22151 z"
         style="fill:#000000;stroke:none" />
      <path
         sodipodi:nodetypes="caacaaac"
         inkscape:connector-curvature="0"
         id="path3863"
         d="m 644.35014,467.69764 c 0,0 16.49312,-11.49917 23.03307,-19.00228 6.96513,-7.99091 11.57837,-17.78232 16.69898,-27.06386 5.05896,-9.16979 13.81984,-28.21551 13.81984,-28.21551 0,0 -1.64578,24.19081 -6.3341,35.12543 -3.84267,8.96229 -11.20389,15.97786 -17.2748,23.6089 -3.47367,4.36635 -6.05603,9.97167 -10.94071,12.66819 -5.60855,3.09612 -19.00228,2.87913 -19.00228,2.87913 z"
         style="fill:#000000;stroke:none" />
      <path
         sodipodi:nodetypes="caaasaaaac"
         inkscape:connector-curvature="0"
         id="path3865"
         d="m 648.95675,473.45591 c 0,0 19.63496,-7.14135 28.79134,-12.09237 8.14819,-4.40587 16.34122,-9.14234 23.03307,-15.54732 9.31833,-8.91888 17.18891,-19.5958 23.03307,-31.09464 1.4578,-2.86834 2.87914,-14.9715 2.87914,-9.21323 0,5.75827 -6.66927,32.60219 -9.78906,48.94527 -1.20717,6.32375 1.59452,15.00856 -3.45496,19.00229 -2.86434,2.26546 -7.29442,-0.37263 -10.94071,-0.57583 -6.52719,-0.36374 -13.04084,-1.12566 -19.57811,-1.15165 -11.33913,-0.0451 -33.97378,1.72748 -33.97378,1.72748 z"
         style="fill:#000000;stroke:none" />
      <path
         sodipodi:nodetypes="cacac"
         inkscape:connector-curvature="0"
         id="path3867"
         d="m 736.48242,431.99638 c 0,0 9.02862,-17.01334 12.66819,-25.9122 4.13592,-10.11245 10.36488,-31.09465 10.36488,-31.09465 0,0 -15.40291,30.48366 -20.72976,46.64197 -1.10811,3.3613 -2.30331,10.36488 -2.30331,10.36488 z"
         style="fill:#000000;stroke:none" />
      <path
         sodipodi:nodetypes="caacaacc"
         inkscape:connector-curvature="0"
         id="path3869"
         d="m 736.48242,434.29969 c 0,0 15.60143,-3.57928 22.45725,-7.48575 6.62054,-3.77241 12.84466,-8.77177 17.2748,-14.9715 5.65725,-7.917 10.94071,-27.06385 10.94071,-27.06385 0,0 -6.34676,27.46175 -14.39567,38.58039 -5.76553,7.9644 -13.36562,16.63386 -23.03307,18.42646 -4.35706,0.80791 -12.66819,-4.03079 -12.66819,-4.03079 z"
         style="fill:#000000;stroke:none" />
      <path
         sodipodi:nodetypes="aaaacaaaaca"
         inkscape:connector-curvature="0"
         id="path3871"
         d="m 803.27833,516.06709 c -4.21373,-10.53073 -10.98642,-20.11178 -13.81985,-31.09465 -2.21396,-8.58168 -2.09264,-17.62787 -2.3033,-26.48803 -0.23286,-9.79381 -1.20896,-19.85924 1.15165,-29.36716 2.56516,-10.33177 13.81984,-28.79134 13.81984,-28.79134 0,0 -12.1564,16.0259 -15.54732,25.33638 -4.44968,12.21751 -6.28042,25.5883 -5.75827,38.58039 0.34029,8.46693 3.15336,16.6971 5.75827,24.76055 2.75053,8.51421 5.60042,17.18709 10.36488,24.76055 2.46149,3.91272 9.21323,10.36488 9.21323,10.36488 0,0 -1.81908,-5.41236 -2.87913,-8.06157 z"
         style="fill:#000000;stroke:none" />
      <path
         sodipodi:nodetypes="aaaaaasaaaca"
         inkscape:connector-curvature="0"
         id="path3873"
         d="m 269.48692,434.87551 c -7.5518,0.79235 -14.43304,4.83273 -21.30559,8.06158 -8.79155,4.13044 -17.77609,8.29699 -25.33638,14.39567 -3.80882,3.07247 -8.83938,6.14016 -9.78905,10.94071 -1.34304,6.78901 4.34458,13.15056 6.90992,19.57811 3.66266,9.17691 6.34074,19.02957 12.09236,27.06385 2.13459,2.98175 8.06158,10.36488 8.06158,7.48575 0,-2.87913 2.40161,-22.02233 6.33409,-32.2463 2.81251,-7.3122 7.81188,-13.59222 12.09236,-20.15393 5.26656,-8.07332 10.48545,-16.23956 16.69898,-23.6089 2.79963,-3.32041 9.21323,-9.21323 9.21323,-9.21323 0,0 -9.94985,-2.83019 -14.9715,-2.30331 z"
         style="fill:#000000;stroke:none" />
      <path
         sodipodi:nodetypes="caaaacaaaac"
         inkscape:connector-curvature="0"
         id="path3875"
         d="m 179.15524,467.2182 c 0,0 16.75927,-11.91445 24.43026,-18.72987 10.76267,-9.56228 22.24326,-18.90086 30.13066,-30.94499 7.87056,-12.01841 12.88463,-25.94522 16.28684,-39.90276 2.13013,-8.73883 1.60946,-17.9173 2.44302,-26.87329 0.53066,-5.70155 1.62869,-17.10118 1.62869,-17.10118 0,0 3.57159,33.14442 5.70039,49.67486 0.98064,7.61481 2.71311,15.1432 3.25737,22.80158 0.25015,3.51994 1.58537,7.43381 0,10.58645 -5.31714,10.57358 -18.49283,14.85706 -28.50197,21.17289 -17.66309,11.14552 -55.37526,29.31631 -55.37526,29.31631 z"
         style="fill:#000000;stroke:none" />
    </g>
  </g>
</svg>
